<mxfile host="app.diagrams.net" modified="2022-03-10T15:08:26.696Z" agent="5.0 (Windows NT 10.0; Win64; x64) AppleWebKit/537.36 (KHTML, like Gecko) Chrome/99.0.4844.51 Safari/537.36" etag="5B5APD7nhiY2KyqTTSnq" version="17.1.0" type="github">
  <diagram id="V7iXwdDR-edS0B0RwPse" name="Page-1">
    <mxGraphModel dx="1038" dy="571" grid="1" gridSize="10" guides="1" tooltips="1" connect="1" arrows="1" fold="1" page="1" pageScale="1" pageWidth="850" pageHeight="1100" math="0" shadow="0">
      <root>
        <mxCell id="0" />
        <mxCell id="1" parent="0" />
        <mxCell id="AvlpJ2dkyi7ZOzSe0jVX-2" value="GITHUB REPO" style="rounded=1;whiteSpace=wrap;html=1;fillColor=#ffe6cc;strokeColor=#d79b00;" vertex="1" parent="1">
          <mxGeometry x="20" y="340" width="120" height="60" as="geometry" />
        </mxCell>
        <mxCell id="AvlpJ2dkyi7ZOzSe0jVX-26" style="edgeStyle=orthogonalEdgeStyle;rounded=0;orthogonalLoop=1;jettySize=auto;html=1;exitX=0.5;exitY=1;exitDx=0;exitDy=0;" edge="1" parent="1" source="AvlpJ2dkyi7ZOzSe0jVX-3" target="AvlpJ2dkyi7ZOzSe0jVX-16">
          <mxGeometry relative="1" as="geometry" />
        </mxCell>
        <mxCell id="AvlpJ2dkyi7ZOzSe0jVX-3" value="JENKINS" style="rounded=1;whiteSpace=wrap;html=1;strokeColor=#d6b656;fillColor=#fff2cc;gradientColor=#ffd966;" vertex="1" parent="1">
          <mxGeometry x="300" y="50" width="120" height="60" as="geometry" />
        </mxCell>
        <mxCell id="AvlpJ2dkyi7ZOzSe0jVX-29" style="edgeStyle=orthogonalEdgeStyle;rounded=0;orthogonalLoop=1;jettySize=auto;html=1;exitX=0.5;exitY=1;exitDx=0;exitDy=0;entryX=0.997;entryY=0.345;entryDx=0;entryDy=0;entryPerimeter=0;" edge="1" parent="1" source="AvlpJ2dkyi7ZOzSe0jVX-4" target="AvlpJ2dkyi7ZOzSe0jVX-6">
          <mxGeometry relative="1" as="geometry">
            <Array as="points">
              <mxPoint x="750" y="210" />
              <mxPoint x="750" y="313" />
            </Array>
          </mxGeometry>
        </mxCell>
        <mxCell id="AvlpJ2dkyi7ZOzSe0jVX-4" value="BUILD host" style="rounded=0;whiteSpace=wrap;html=1;fillColor=#d5e8d4;gradientColor=#97d077;strokeColor=#82b366;" vertex="1" parent="1">
          <mxGeometry x="710" y="150" width="120" height="60" as="geometry" />
        </mxCell>
        <mxCell id="AvlpJ2dkyi7ZOzSe0jVX-5" value="TEST host" style="rounded=0;whiteSpace=wrap;html=1;fillColor=#d5e8d4;gradientColor=#97d077;strokeColor=#82b366;" vertex="1" parent="1">
          <mxGeometry x="710" y="440" width="120" height="60" as="geometry" />
        </mxCell>
        <mxCell id="AvlpJ2dkyi7ZOzSe0jVX-6" value="DOCKER HUB" style="ellipse;whiteSpace=wrap;html=1;fillColor=#b1ddf0;strokeColor=#10739e;" vertex="1" parent="1">
          <mxGeometry x="580" y="285" width="120" height="80" as="geometry" />
        </mxCell>
        <mxCell id="AvlpJ2dkyi7ZOzSe0jVX-16" value="ANSIBLE playbook" style="rounded=0;whiteSpace=wrap;html=1;strokeColor=#ae4132;fillColor=#fad9d5;" vertex="1" parent="1">
          <mxGeometry x="280" y="205" width="160" height="240" as="geometry" />
        </mxCell>
        <mxCell id="AvlpJ2dkyi7ZOzSe0jVX-17" value="BUILD play" style="rounded=1;whiteSpace=wrap;html=1;strokeColor=#000000;" vertex="1" parent="1">
          <mxGeometry x="300" y="225" width="120" height="60" as="geometry" />
        </mxCell>
        <mxCell id="AvlpJ2dkyi7ZOzSe0jVX-18" value="TEST play" style="rounded=1;whiteSpace=wrap;html=1;strokeColor=#000000;" vertex="1" parent="1">
          <mxGeometry x="300" y="350" width="120" height="60" as="geometry" />
        </mxCell>
        <mxCell id="AvlpJ2dkyi7ZOzSe0jVX-21" value="" style="endArrow=classic;html=1;rounded=0;" edge="1" parent="1">
          <mxGeometry width="50" height="50" relative="1" as="geometry">
            <mxPoint x="79.5" y="530" as="sourcePoint" />
            <mxPoint x="79.5" y="400" as="targetPoint" />
          </mxGeometry>
        </mxCell>
        <mxCell id="AvlpJ2dkyi7ZOzSe0jVX-22" value="DEVELOPER" style="shape=umlActor;verticalLabelPosition=bottom;verticalAlign=top;html=1;outlineConnect=0;strokeColor=#000000;" vertex="1" parent="1">
          <mxGeometry x="65" y="540" width="30" height="60" as="geometry" />
        </mxCell>
        <mxCell id="AvlpJ2dkyi7ZOzSe0jVX-23" value="" style="endArrow=classic;html=1;rounded=0;entryX=0;entryY=0.5;entryDx=0;entryDy=0;" edge="1" parent="1" target="AvlpJ2dkyi7ZOzSe0jVX-3">
          <mxGeometry width="50" height="50" relative="1" as="geometry">
            <mxPoint x="79.5" y="330" as="sourcePoint" />
            <mxPoint x="80" y="80" as="targetPoint" />
            <Array as="points">
              <mxPoint x="80" y="80" />
            </Array>
          </mxGeometry>
        </mxCell>
        <mxCell id="AvlpJ2dkyi7ZOzSe0jVX-27" value="" style="endArrow=classic;html=1;rounded=0;entryX=0;entryY=0.5;entryDx=0;entryDy=0;" edge="1" parent="1" source="AvlpJ2dkyi7ZOzSe0jVX-17" target="AvlpJ2dkyi7ZOzSe0jVX-4">
          <mxGeometry width="50" height="50" relative="1" as="geometry">
            <mxPoint x="400" y="300" as="sourcePoint" />
            <mxPoint x="450" y="250" as="targetPoint" />
            <Array as="points">
              <mxPoint x="480" y="250" />
            </Array>
          </mxGeometry>
        </mxCell>
        <mxCell id="AvlpJ2dkyi7ZOzSe0jVX-28" value="" style="endArrow=classic;html=1;rounded=0;exitX=1;exitY=0.5;exitDx=0;exitDy=0;entryX=0;entryY=0.5;entryDx=0;entryDy=0;" edge="1" parent="1" source="AvlpJ2dkyi7ZOzSe0jVX-18" target="AvlpJ2dkyi7ZOzSe0jVX-5">
          <mxGeometry width="50" height="50" relative="1" as="geometry">
            <mxPoint x="400" y="300" as="sourcePoint" />
            <mxPoint x="450" y="250" as="targetPoint" />
            <Array as="points">
              <mxPoint x="480" y="380" />
            </Array>
          </mxGeometry>
        </mxCell>
        <mxCell id="AvlpJ2dkyi7ZOzSe0jVX-30" value="" style="endArrow=classic;html=1;rounded=0;entryX=0.5;entryY=0;entryDx=0;entryDy=0;exitX=0.723;exitY=0.975;exitDx=0;exitDy=0;exitPerimeter=0;" edge="1" parent="1" source="AvlpJ2dkyi7ZOzSe0jVX-6" target="AvlpJ2dkyi7ZOzSe0jVX-5">
          <mxGeometry width="50" height="50" relative="1" as="geometry">
            <mxPoint x="680" y="370" as="sourcePoint" />
            <mxPoint x="450" y="250" as="targetPoint" />
            <Array as="points">
              <mxPoint x="670" y="400" />
            </Array>
          </mxGeometry>
        </mxCell>
        <mxCell id="AvlpJ2dkyi7ZOzSe0jVX-31" value="new commit" style="text;html=1;align=center;verticalAlign=middle;resizable=0;points=[];autosize=1;strokeColor=none;fillColor=none;" vertex="1" parent="1">
          <mxGeometry x="78" y="445" width="80" height="20" as="geometry" />
        </mxCell>
        <mxCell id="AvlpJ2dkyi7ZOzSe0jVX-32" value="webhooks alert" style="text;html=1;align=center;verticalAlign=middle;resizable=0;points=[];autosize=1;strokeColor=none;fillColor=none;" vertex="1" parent="1">
          <mxGeometry x="80" y="190" width="100" height="20" as="geometry" />
        </mxCell>
        <mxCell id="AvlpJ2dkyi7ZOzSe0jVX-33" value="Invoking ansible" style="text;html=1;align=center;verticalAlign=middle;resizable=0;points=[];autosize=1;strokeColor=none;fillColor=none;" vertex="1" parent="1">
          <mxGeometry x="360" y="150" width="100" height="20" as="geometry" />
        </mxCell>
        <mxCell id="AvlpJ2dkyi7ZOzSe0jVX-35" value="build and push image" style="text;html=1;align=center;verticalAlign=middle;resizable=0;points=[];autosize=1;strokeColor=none;fillColor=none;rotation=-15;" vertex="1" parent="1">
          <mxGeometry x="540" y="185" width="130" height="20" as="geometry" />
        </mxCell>
        <mxCell id="AvlpJ2dkyi7ZOzSe0jVX-36" value="pull image" style="text;html=1;align=center;verticalAlign=middle;resizable=0;points=[];autosize=1;strokeColor=none;fillColor=none;" vertex="1" parent="1">
          <mxGeometry x="685" y="390" width="70" height="20" as="geometry" />
        </mxCell>
        <mxCell id="AvlpJ2dkyi7ZOzSe0jVX-37" value="create container" style="text;html=1;align=center;verticalAlign=middle;resizable=0;points=[];autosize=1;strokeColor=none;fillColor=none;rotation=20;" vertex="1" parent="1">
          <mxGeometry x="530" y="425" width="100" height="20" as="geometry" />
        </mxCell>
      </root>
    </mxGraphModel>
  </diagram>
</mxfile>
